<?xml version="1.0" standalone="no"?>
<!DOCTYPE svg PUBLIC "-//W3C//DTD SVG 20010904//EN"
 "http://www.w3.org/TR/2001/REC-SVG-20010904/DTD/svg10.dtd">
<svg version="1.0" xmlns="http://www.w3.org/2000/svg"
 width="2048.000000pt" height="2048.000000pt" viewBox="0 0 2048.000000 2048.000000"
 preserveAspectRatio="xMidYMid meet">

<g transform="translate(0.000000,2048.000000) scale(0.100000,-0.100000)"
fill="#000000" stroke="none">
<path d="M12898 14483 c-53 -65 -180 -215 -281 -333 -102 -118 -184 -216 -183
-217 1 -1 73 9 160 23 88 13 161 22 164 19 7 -6 -48 -140 -143 -352 -354 -782
-1079 -1713 -1936 -2486 -109 -97 -201 -177 -207 -177 -5 0 -15 7 -22 15 -20
24 -306 255 -570 459 -36 27 -90 70 -121 94 l-56 43 -203 -153 c-279 -211
-456 -350 -724 -567 -126 -102 -290 -235 -365 -296 -216 -174 -431 -357 -626
-530 -446 -398 -426 -378 -324 -334 466 199 717 301 954 384 61 22 103 47 177
104 368 285 1031 792 1098 840 24 16 19 20 362 -262 128 -105 284 -233 347
-283 l115 -93 30 22 c70 49 351 279 491 402 306 269 455 417 683 683 456 531
774 1054 1012 1662 71 183 199 574 219 672 7 32 15 59 19 62 4 2 61 -48 126
-110 66 -63 121 -112 123 -110 6 6 -23 187 -52 326 -26 119 -93 369 -142 523
l-28 89 -97 -119z"/>
<path d="M11835 13108 c-16 -10 -97 -53 -180 -95 l-150 -77 65 -12 c36 -7 75
-13 88 -14 12 0 22 -3 22 -6 0 -17 -173 -204 -357 -385 -201 -198 -413 -393
-785 -722 l-178 -157 -67 55 c-247 202 -635 495 -645 488 -7 -4 -24 -17 -38
-29 -14 -12 -135 -113 -270 -225 -262 -218 -332 -278 -565 -489 -375 -339
-857 -814 -1130 -1111 -185 -201 -595 -662 -634 -713 -28 -36 -28 -36 209 185
291 271 533 489 830 750 123 108 350 294 610 500 342 271 349 277 693 536
l308 232 162 -125 c89 -70 194 -150 232 -180 39 -30 125 -97 193 -150 l123
-95 117 98 c491 411 807 742 1127 1183 78 107 172 247 178 263 2 6 31 -18 65
-53 l62 -65 -6 70 c-9 97 -41 356 -46 359 -1 2 -16 -5 -33 -16z"/>
<path d="M9913 7579 c-187 -31 -376 -176 -464 -354 -175 -356 -11 -781 355
-918 71 -26 97 -31 211 -35 146 -5 214 8 320 58 58 28 186 118 200 140 6 9
-105 138 -126 148 -4 2 -36 -20 -73 -47 -86 -65 -170 -92 -286 -92 -139 0
-225 37 -317 133 -58 63 -87 114 -108 195 -65 251 81 506 324 563 33 8 86 11
137 7 68 -4 98 -11 157 -39 40 -20 89 -49 109 -67 20 -17 40 -31 45 -31 5 0
40 36 76 79 l67 80 -58 46 c-73 59 -177 109 -269 129 -76 17 -214 19 -300 5z"/>
<path d="M13963 7570 c-85 -22 -137 -47 -220 -106 -205 -146 -309 -449 -243
-710 31 -123 74 -198 165 -290 133 -133 288 -197 480 -198 117 0 198 19 300
69 68 33 190 125 190 143 0 4 -28 39 -63 77 -72 78 -53 78 -164 3 -80 -53
-161 -78 -258 -78 -252 0 -440 190 -440 445 1 185 90 334 247 412 65 32 86 37
163 41 128 6 244 -33 352 -120 15 -12 29 -20 31 -17 2 2 32 39 67 82 l64 79
-24 19 c-99 78 -202 133 -292 154 -90 21 -265 19 -355 -5z"/>
<path d="M6457 7523 c-58 -132 -163 -367 -222 -498 -181 -402 -315 -711 -315
-726 0 -5 50 -9 110 -9 l110 0 40 87 c22 47 50 112 63 144 l22 57 50 6 c28 3
168 6 313 6 l263 0 23 -52 c13 -29 42 -97 66 -150 l42 -98 114 0 c63 0 114 3
114 7 0 4 -36 89 -79 188 -44 99 -118 270 -166 380 -86 198 -175 403 -264 605
l-46 105 -106 3 -106 3 -26 -58z m233 -458 c50 -120 98 -232 106 -247 l15 -28
-227 0 c-177 0 -225 3 -221 13 3 6 47 109 99 227 52 118 100 230 108 248 9 24
15 30 21 20 4 -7 48 -112 99 -233z"/>
<path d="M7800 6930 l0 -640 110 0 110 0 2 213 3 212 145 3 145 2 70 -107 c38
-60 103 -156 144 -215 l74 -108 129 0 128 0 -17 28 c-10 15 -80 116 -155 224
-76 108 -138 199 -138 201 0 2 33 20 74 41 151 74 225 212 214 395 -7 102 -38
178 -100 246 -60 66 -163 120 -258 135 -36 5 -203 10 -372 10 l-308 0 0 -640z
m685 407 c22 -10 51 -28 64 -40 84 -77 80 -246 -8 -320 -56 -47 -114 -57 -328
-57 l-193 0 0 221 0 221 213 -4 c176 -3 219 -7 252 -21z"/>
<path d="M10990 7465 l0 -105 205 0 205 0 0 -535 0 -535 110 0 110 0 0 535 0
535 205 0 205 0 0 105 0 105 -520 0 -520 0 0 -105z"/>
<path d="M12630 6930 l0 -640 110 0 110 0 0 640 0 640 -110 0 -110 0 0 -640z"/>
<path d="M8510 5241 l0 -301 50 0 50 0 -2 298 -3 297 -47 3 -48 3 0 -300z"/>
<path d="M8973 5533 c-10 -3 -13 -73 -13 -299 l0 -294 50 0 50 0 2 207 3 207
160 -207 159 -208 46 3 45 3 3 293 2 292 -55 0 -55 0 0 -202 c0 -194 -1 -202
-18 -181 -9 12 -81 105 -160 207 -134 174 -146 186 -175 185 -18 0 -38 -3 -44
-6z"/>
<path d="M9940 5368 c-40 -95 -99 -230 -131 -300 l-57 -128 52 0 53 0 24 63
25 62 154 0 155 0 25 -62 25 -63 58 0 57 0 -14 33 c-21 50 -222 509 -237 540
-11 24 -17 27 -64 27 l-51 0 -74 -172z m180 -77 l49 -111 -99 0 c-55 0 -100 3
-100 6 0 12 93 224 97 221 2 -3 26 -54 53 -116z"/>
<path d="M10647 5533 c-4 -3 -7 -138 -7 -300 l0 -293 55 0 55 0 0 206 0 206
98 -123 c53 -68 126 -161 161 -206 62 -82 64 -83 107 -83 l44 0 -2 298 -3 297
-47 3 -48 3 -2 -206 -3 -206 -95 121 c-52 67 -124 160 -159 206 -62 82 -64 84
-105 84 -24 0 -46 -3 -49 -7z"/>
<path d="M11657 5526 c-46 -17 -99 -56 -132 -99 -39 -52 -57 -114 -57 -199 -1
-64 4 -87 26 -132 87 -178 328 -220 496 -87 l25 20 -35 30 c-38 32 -55 38 -66
20 -13 -22 -90 -49 -139 -49 -158 0 -250 157 -181 307 54 115 186 147 299 72
l46 -30 30 33 c17 18 31 36 31 40 0 13 -66 58 -109 73 -53 19 -182 19 -234 1z"/>
<path d="M12280 5240 l0 -300 225 0 225 0 0 50 0 50 -170 0 -170 0 0 75 0 75
150 0 150 0 0 50 0 50 -150 0 -150 0 0 75 0 75 170 0 170 0 0 50 0 50 -225 0
-225 0 0 -300z"/>
<path d="M7760 5235 l0 -295 50 0 c33 0 50 4 51 13 1 6 1 60 -1 120 l-2 107
161 0 161 0 0 50 0 50 -158 0 -158 0 0 78 1 77 173 3 172 2 0 45 0 45 -225 0
-225 0 0 -295z"/>
</g>
</svg>
